<svg version="1.1" id="Layer_1" xmlns="http://www.w3.org/2000/svg" xmlns:xlink="http://www.w3.org/1999/xlink" x="0px" y="0px"
	 width="100%" viewBox="0 0 500 500" enable-background="new 0 0 500 500" xml:space="preserve">
<path fill="#FFFFFF" opacity="1.000000" stroke="none" 
	d="
M294.000000,501.000000 
	C196.000031,501.000000 98.500046,501.000000 1.000052,501.000000 
	C1.000035,334.333405 1.000035,167.666794 1.000017,1.000142 
	C167.666565,1.000095 334.333130,1.000095 500.999756,1.000047 
	C500.999847,167.666519 500.999847,334.333038 500.999939,500.999786 
	C432.166656,501.000000 363.333344,501.000000 294.000000,501.000000 
M297.058990,269.390442 
	C296.153259,265.715820 294.606354,266.390564 292.929749,268.835052 
	C291.494995,270.926941 292.956299,280.083954 295.729492,283.106995 
	C296.767303,280.525818 297.638123,278.359985 298.910461,275.624878 
	C299.363098,274.512360 299.815765,273.399841 300.268402,272.287323 
	C300.984161,274.623718 300.716949,276.645447 301.078186,278.547821 
	C301.318481,279.813141 302.355377,281.767883 303.216949,281.868866 
	C304.380341,282.005310 305.717682,280.657867 307.686890,279.571411 
	C311.350769,282.745483 314.921143,284.730713 318.226562,279.055786 
	C318.353088,278.838562 320.074402,279.550232 321.022552,280.508026 
	C322.397919,282.996307 324.082520,282.817322 326.130585,281.260468 
	C327.754028,280.026337 329.549377,279.018341 331.082031,278.764771 
	C330.518372,285.361511 329.954681,291.958282 329.391022,298.555023 
	C329.769348,298.798737 330.147675,299.042450 330.526031,299.286163 
	C331.638977,297.468048 333.380951,295.760864 333.725494,293.807220 
	C334.323242,290.417542 334.056549,286.875366 334.564087,282.704620 
	C336.562531,281.894836 338.560974,281.085022 341.265289,280.268738 
	C341.957642,279.550415 342.649994,278.832092 343.765198,278.059875 
	C344.043518,277.893829 344.159454,277.650452 344.798279,277.335907 
	C349.843262,284.335632 351.856384,284.263885 357.365631,276.954712 
	C357.734100,276.465881 358.423340,276.218872 359.808533,275.771240 
	C360.225647,276.249969 360.668976,276.708557 361.055145,277.211090 
	C362.344604,278.889130 363.613647,280.582855 364.890503,282.270599 
	C366.510162,280.675873 368.129852,279.081116 370.132446,277.109375 
	C367.663849,277.278870 366.486938,277.359680 365.310089,277.440491 
	C365.260284,273.001099 364.854645,268.517700 365.395081,264.151367 
	C365.541779,262.966125 368.544678,262.134430 370.805298,260.806458 
	C369.231354,259.880493 367.687744,258.972412 365.992828,257.975281 
	C366.316254,255.469925 366.655762,252.839981 366.995270,250.210052 
	C366.661194,250.108749 366.327118,250.007446 365.993011,249.906143 
	C363.019012,254.406830 360.044983,258.907532 356.841125,263.756042 
	C358.610199,263.486450 359.817261,263.302460 362.311127,262.922394 
	C361.064697,267.466248 360.017792,271.282623 358.133942,274.536774 
	C358.174225,273.715851 358.428223,272.833710 358.213928,272.085724 
	C357.620972,270.016357 356.832703,268.002930 356.121613,265.967407 
	C354.191254,266.821320 351.889893,267.270020 350.414520,268.620880 
	C347.997375,270.833954 346.117157,273.633392 343.557220,276.037628 
	C343.557220,276.037628 343.085876,275.966156 343.036804,275.206299 
	C344.850372,267.682068 342.927277,265.769379 335.546509,267.766083 
	C335.686188,266.572510 335.825867,265.378937 335.965546,264.185364 
	C335.328094,264.033173 334.690613,263.880951 334.053162,263.728760 
	C332.984528,267.468506 331.915894,271.208252 330.213837,275.277893 
	C329.992065,275.462280 329.787567,275.677490 329.540070,275.815857 
	C329.442078,275.870636 329.150604,275.797333 329.112671,275.710297 
	C327.171661,271.253632 325.248535,266.789215 323.323456,262.325623 
	C322.921326,262.194458 322.519196,262.063293 322.117065,261.932129 
	C321.683411,264.506622 321.090576,267.067413 320.867859,269.660004 
	C320.698181,271.635193 320.998047,273.650696 320.787262,276.526764 
	C318.509277,278.991608 316.139374,280.931671 312.523224,278.374786 
	C314.387970,275.768677 316.248291,273.802673 317.286407,271.470612 
	C317.871307,270.156616 317.100983,268.239380 316.941132,266.593872 
	C315.485352,266.951813 313.336487,266.831482 312.699524,267.754486 
	C310.503815,270.936157 308.835999,274.482117 306.106567,278.156891 
	C305.693634,276.272339 305.208588,274.399963 304.887177,272.499908 
	C304.537506,270.432831 304.339844,268.340027 304.075897,266.258453 
	C303.566467,266.194122 303.057068,266.129791 302.547668,266.065430 
	C301.094391,268.191742 299.641144,270.318085 297.881714,272.892334 
	C297.445465,271.610840 297.197784,270.883270 297.058990,269.390442 
M299.251038,92.927872 
	C297.502625,92.657196 295.754242,92.386528 293.182465,91.939079 
	C291.790405,92.050262 290.398315,92.161446 288.369629,92.236580 
	C287.579926,92.545082 286.790192,92.853592 285.335846,93.176735 
	C284.034576,94.030167 282.733307,94.883591 280.833405,95.897369 
	C279.762573,96.869728 278.691711,97.842087 277.104370,99.015831 
	C276.708832,99.609840 276.313263,100.203850 275.333649,101.180359 
	C274.449371,103.074791 273.565094,104.969223 272.262695,107.427917 
	C271.949310,109.286049 271.635925,111.144173 271.152008,113.825638 
	C271.587860,124.388954 277.698517,132.477615 287.694489,135.129837 
	C289.464142,135.367004 291.233826,135.604172 293.755554,135.965256 
	C295.199524,135.746262 296.643494,135.527283 298.829987,135.223038 
	C300.217010,134.695389 301.604034,134.167725 303.586151,133.465363 
	C305.039734,132.307617 306.493347,131.149887 308.517334,129.772278 
	C309.270813,128.845688 310.024323,127.919106 311.232697,126.586006 
	C311.719208,125.720795 312.205719,124.855583 313.108398,123.350235 
	C313.367920,121.898758 313.627411,120.447281 314.210510,118.309738 
	C314.478241,116.874298 314.746002,115.438850 315.141083,113.155296 
	C314.816772,102.914177 309.386932,96.539268 299.251038,92.927872 
M235.093491,279.879547 
	C231.653458,279.879547 228.213425,279.879547 224.278397,279.879547 
	C224.278397,272.440857 224.345917,265.359009 224.194077,258.281860 
	C224.174805,257.383667 223.007141,256.510101 222.371506,255.625122 
	C221.852997,256.432007 220.894989,257.232910 220.883942,258.046692 
	C220.772461,266.258087 220.815994,274.471558 220.815994,282.785278 
	C226.110352,282.785278 231.046143,282.785278 236.790909,282.940826 
	C242.689743,284.317017 241.147034,278.482971 243.674698,275.896271 
	C244.768631,275.896271 246.260437,276.019379 247.725372,275.873199 
	C252.119003,275.434662 255.847656,275.753693 256.800323,281.313049 
	C256.946045,282.163177 259.114075,282.666809 261.287140,283.837189 
	C257.857300,274.426056 255.043854,266.458252 251.990036,258.583649 
	C251.510208,257.346283 249.917419,255.717545 248.881546,255.747192 
	C247.818176,255.777634 246.350220,257.438629 245.849823,258.699677 
	C243.406311,264.857697 241.312317,271.154236 238.877289,277.315887 
	C238.429428,278.449158 236.977829,279.185730 235.093491,279.879547 
M249.818222,228.943878 
	C252.546585,228.519730 255.274963,228.095581 258.750427,227.672150 
	C262.216187,226.564407 265.681946,225.456665 269.879242,224.215469 
	C273.280762,222.492599 276.682281,220.769730 280.760681,218.919266 
	C283.895111,216.637924 287.029510,214.356583 290.781250,211.841995 
	C293.199860,209.594391 295.618500,207.346786 298.631439,204.781616 
	C301.072632,201.521011 303.513794,198.260406 306.321350,194.432373 
	C308.198700,191.283142 310.076019,188.133896 312.430389,184.467178 
	C313.659454,180.997787 314.888550,177.528412 316.607727,173.501556 
	C317.472137,168.338943 318.336548,163.176315 319.592133,157.153900 
	C320.456207,147.576889 319.185242,138.304031 316.500732,129.618423 
	C311.645172,133.097900 307.247253,136.249420 302.044800,139.620544 
	C298.848145,140.252625 295.651520,140.884705 292.532349,141.501465 
	C292.750336,144.082779 292.957764,146.539581 293.031128,149.906525 
	C292.638153,154.925217 292.245148,159.943893 291.366425,165.470093 
	C290.229614,168.641724 289.092773,171.813354 287.437164,175.408386 
	C285.646790,178.279709 283.856415,181.151031 281.471100,184.315674 
	C279.323059,186.581726 277.175049,188.847778 274.403320,191.355148 
	C271.226379,193.483917 268.049469,195.612686 264.168091,197.949860 
	C261.445190,199.019257 258.722321,200.088654 255.204376,201.137573 
	C251.802856,201.806885 248.401337,202.476196 244.092041,203.030212 
	C240.755508,202.941223 237.418991,202.852219 233.481613,202.342499 
	C230.023575,201.458160 226.565536,200.573822 222.599426,199.241257 
	C204.218201,191.018417 193.345108,177.130081 190.862503,156.082108 
	C190.928772,151.060059 190.995056,146.038010 191.512100,140.448776 
	C192.748016,136.654022 193.983932,132.859268 195.713593,128.630295 
	C197.442093,125.743340 199.170593,122.856384 201.448532,119.595116 
	C204.077454,116.788078 206.706390,113.981041 209.978699,110.979355 
	C213.320648,108.892357 216.662613,106.805351 220.688721,104.547310 
	C225.168259,103.161530 229.647812,101.775749 235.035812,100.346222 
	C239.023132,100.245926 243.010452,100.145638 247.721069,100.319778 
	C251.811539,101.221336 255.901993,102.122894 260.497864,103.518417 
	C262.666107,104.417892 264.834351,105.317375 266.982971,106.208717 
	C268.508881,103.208107 269.820953,100.627983 271.698273,97.713081 
	C276.212952,94.135162 280.727631,90.557243 285.306458,86.928497 
	C277.165436,81.406876 268.075653,77.315887 257.294189,75.195389 
	C253.196152,74.802513 249.098129,74.409630 244.276001,73.746674 
	C240.518692,73.905609 236.761383,74.064545 232.207672,74.149162 
	C228.435806,74.963554 224.663956,75.777946 220.106934,76.683846 
	C215.293274,78.725060 210.479614,80.766281 204.998444,82.937767 
	C201.275681,85.506706 197.552933,88.075653 193.177200,90.883217 
	C190.074066,93.843216 186.970932,96.803223 183.280289,100.103394 
	C181.075089,103.015160 178.869873,105.926918 176.148041,109.267204 
	C174.322235,112.802528 172.496414,116.337852 170.173538,120.364670 
	C168.948441,124.186638 167.723328,128.008606 166.151169,132.474472 
	C165.601974,135.647720 165.052780,138.820984 164.209518,142.856598 
	C164.172760,145.572144 164.136002,148.287674 163.968185,151.910934 
	C164.432419,156.605377 164.896652,161.299835 165.323898,166.754883 
	C165.546173,167.720993 165.732971,168.696884 165.995911,169.651794 
	C171.953735,191.288910 183.635864,208.580215 204.271393,219.915054 
	C208.494965,221.689102 212.718552,223.463135 217.479889,225.700485 
	C220.319260,226.420609 223.158615,227.140732 226.706451,228.089081 
	C231.124512,228.465683 235.542587,228.842300 240.738205,229.542862 
	C243.492142,229.313004 246.246063,229.083145 249.818222,228.943878 
M214.945328,260.774445 
	C212.418320,256.794128 208.874863,254.482803 204.097870,255.167480 
	C199.220047,255.866608 195.648682,258.929474 194.634583,263.619110 
	C193.823303,267.370758 193.779495,271.592194 194.631317,275.322845 
	C195.697174,279.990814 199.181122,283.014496 204.297806,283.335938 
	C209.597260,283.668915 213.132614,280.982605 215.342575,276.382477 
	C217.725128,271.423035 217.582657,266.436493 214.945328,260.774445 
M160.330902,255.870697 
	C155.286911,253.892822 151.089249,255.427536 147.884521,259.404388 
	C143.735214,264.553436 143.658966,270.451935 145.956467,276.367371 
	C147.585602,280.561920 150.774460,283.073761 155.416260,283.359467 
	C160.061234,283.645325 163.405304,281.420197 165.745468,277.616638 
	C170.237091,270.316193 168.204300,261.158142 160.330902,255.870697 
M182.525177,282.746002 
	C180.712387,272.176178 186.616623,264.191254 192.488098,255.290924 
	C184.180481,255.920776 185.241074,264.323914 180.577759,267.079163 
	C173.216202,255.684814 173.216202,255.684814 169.694824,256.093475 
	C174.283646,264.065979 180.983170,271.217010 178.970123,281.493652 
	C178.909592,281.802643 180.753281,282.484680 182.525177,282.746002 
M140.788544,283.035736 
	C141.679764,282.306183 142.570969,281.576630 143.462189,280.847076 
	C143.144775,280.435577 142.827377,280.024078 142.509964,279.612579 
	C138.746140,279.612579 134.982330,279.612579 130.961975,279.612579 
	C130.961975,272.525848 130.880661,265.720062 131.001282,258.917877 
	C131.050781,256.125519 130.412170,254.730911 127.306396,255.975327 
	C127.306396,264.933868 127.306396,273.833527 127.306396,283.035828 
	C131.666489,283.035828 135.800293,283.035828 140.788544,283.035736 
M288.512939,268.418488 
	C287.148560,267.553345 285.659607,265.810852 284.442688,265.983673 
	C280.414154,266.555756 275.958557,272.517548 276.465668,276.676788 
	C276.692993,278.541565 278.060425,281.462036 279.354034,281.725494 
	C281.353638,282.132690 284.075043,281.160126 285.881439,279.899902 
	C289.624359,277.288696 289.372681,273.167114 288.512939,268.418488 
z"/>
<path fill="#9F54E5" opacity="1.000000" stroke="none" 
	d="
M239.960648,229.218903 
	C235.542587,228.842300 231.124512,228.465683 226.352890,227.566711 
	C225.055756,223.942123 224.828293,220.336349 223.056442,217.816544 
	C207.436951,195.603531 191.638458,173.513901 175.641449,151.571091 
	C172.778351,147.643829 170.832504,142.112091 164.503586,141.994232 
	C165.052780,138.820984 165.601974,135.647720 166.721008,132.216690 
	C169.561935,133.708923 172.275024,135.104538 174.017914,137.278122 
	C178.519058,142.891541 182.517746,148.905212 186.898972,154.619598 
	C187.756546,155.738144 189.433090,156.228790 190.731903,157.009033 
	C193.345108,177.130081 204.218201,191.018417 222.845123,199.845184 
	C225.583405,204.324524 228.110123,208.178513 230.560379,212.080521 
	C234.030426,217.606522 239.434967,222.077225 239.960648,229.218903 
z"/>
<path fill="#9653F2" opacity="1.000000" stroke="none" 
	d="
M216.942123,225.237183 
	C212.718552,223.463135 208.494965,221.689102 204.196106,219.292847 
	C203.624756,215.900421 203.955978,212.557068 202.498306,210.453064 
	C193.058609,196.827530 183.146118,183.530609 173.590698,169.983398 
	C171.433945,166.925659 169.077301,165.326019 165.360886,165.994278 
	C164.896652,161.299835 164.432419,156.605377 164.388580,151.498795 
	C167.111832,152.553864 170.110291,153.513565 171.608841,155.567566 
	C185.123856,174.092087 198.436264,192.765869 211.657532,211.502106 
	C214.521240,215.560349 218.506958,219.388474 216.942123,225.237183 
z"/>
<path fill="#9A53EB" opacity="1.000000" stroke="none" 
	d="
M217.210999,225.468842 
	C218.506958,219.388474 214.521240,215.560349 211.657532,211.502106 
	C198.436264,192.765869 185.123856,174.092087 171.608841,155.567566 
	C170.110291,153.513565 167.111832,152.553864 164.454117,151.044937 
	C164.136002,148.287674 164.172760,145.572144 164.356552,142.425415 
	C170.832504,142.112091 172.778351,147.643829 175.641449,151.571091 
	C191.638458,173.513901 207.436951,195.603531 223.056442,217.816544 
	C224.828293,220.336349 225.055756,223.942123 225.998657,227.452606 
	C223.158615,227.140732 220.319260,226.420609 217.210999,225.468842 
z"/>
<path fill="#9154FA" opacity="1.000000" stroke="none" 
	d="
M165.342392,166.374573 
	C169.077301,165.326019 171.433945,166.925659 173.590698,169.983398 
	C183.146118,183.530609 193.058609,196.827530 202.498306,210.453064 
	C203.955978,212.557068 203.624756,215.900421 203.964325,219.044983 
	C183.635864,208.580215 171.953735,191.288910 165.995911,169.651794 
	C165.732971,168.696884 165.546173,167.720993 165.342392,166.374573 
z"/>
<path fill="#EC5974" opacity="1.000000" stroke="none" 
	d="
M319.200928,158.013702 
	C318.336548,163.176315 317.472137,168.338943 316.029419,173.636002 
	C313.349945,172.075500 310.835785,170.700211 309.228363,168.623184 
	C305.092560,163.279114 301.448395,157.556946 297.400452,152.140808 
	C296.391876,150.791351 294.598083,150.028748 293.165222,148.996399 
	C292.957764,146.539581 292.750336,144.082779 292.532349,141.501465 
	C295.651520,140.884705 298.848145,140.252625 302.483612,139.928696 
	C306.920044,145.923904 310.814514,151.689575 315.025208,157.214233 
	C315.665131,158.053848 317.772369,157.775146 319.200928,158.013702 
z"/>
<path fill="#D45798" opacity="1.000000" stroke="none" 
	d="
M234.127350,100.389969 
	C229.647812,101.775749 225.168259,103.161530 220.338852,104.281082 
	C215.214645,96.945732 210.440292,89.876610 205.665955,82.807495 
	C210.479614,80.766281 215.293274,78.725060 220.530823,77.046860 
	C221.813644,79.339714 222.492004,81.377052 223.564865,83.179581 
	C227.007187,88.963112 230.595413,94.659790 234.127350,100.389969 
z"/>
<path fill="#C956A8" opacity="1.000000" stroke="none" 
	d="
M205.332199,82.872635 
	C210.440292,89.876610 215.214645,96.945732 219.996765,104.366592 
	C216.662613,106.805351 213.320648,108.892357 209.323730,110.919853 
	C203.722549,104.121773 198.776352,97.383186 193.830170,90.644600 
	C197.552933,88.075653 201.275681,85.506706 205.332199,82.872635 
z"/>
<path fill="#A655DA" opacity="1.000000" stroke="none" 
	d="
M190.797211,156.545563 
	C189.433090,156.228790 187.756546,155.738144 186.898972,154.619598 
	C182.517746,148.905212 178.519058,142.891541 174.017914,137.278122 
	C172.275024,135.104538 169.561935,133.708923 166.894531,131.894745 
	C167.723328,128.008606 168.948441,124.186638 170.802216,120.178162 
	C173.220444,121.102028 175.449432,121.852661 176.711823,123.394623 
	C179.719589,127.068489 182.133240,131.223480 185.058411,134.972275 
	C186.792725,137.194916 189.043030,139.014908 191.061340,141.015961 
	C190.995056,146.038010 190.928772,151.060059 190.797211,156.545563 
z"/>
<path fill="#E4577F" opacity="1.000000" stroke="none" 
	d="
M293.098175,149.451462 
	C294.598083,150.028748 296.391876,150.791351 297.400452,152.140808 
	C301.448395,157.556946 305.092560,163.279114 309.228363,168.623184 
	C310.835785,170.700211 313.349945,172.075500 315.784363,173.914734 
	C314.888550,177.528412 313.659454,180.997787 311.822876,184.725433 
	C309.103088,183.573364 306.567535,182.527130 304.972046,180.672287 
	C302.174194,177.419571 300.104034,173.551300 297.431854,170.176147 
	C295.869446,168.202744 293.731293,166.685211 291.852142,164.962585 
	C292.245148,159.943893 292.638153,154.925217 293.098175,149.451462 
z"/>
<path fill="#EC5974" opacity="1.000000" stroke="none" 
	d="
M245.000092,74.016747 
	C249.098129,74.409630 253.196152,74.802513 257.648804,75.744415 
	C258.945770,85.617569 265.724365,91.419312 271.133026,98.047859 
	C269.820953,100.627983 268.508881,103.208107 266.982971,106.208717 
	C264.834351,105.317375 262.666107,104.417892 260.242676,102.896042 
	C256.777924,97.132393 253.623535,91.955551 250.341049,86.861229 
	C247.780228,82.886925 244.048752,79.437553 245.000092,74.016747 
z"/>
<path fill="#BE55B7" opacity="1.000000" stroke="none" 
	d="
M193.503693,90.763908 
	C198.776352,97.383186 203.722549,104.121773 209.002045,111.017174 
	C206.706390,113.981041 204.077454,116.788078 200.832672,119.749878 
	C198.924042,118.472801 197.553802,117.102806 196.352554,115.597916 
	C192.159439,110.344856 188.024704,105.045181 183.867783,99.763229 
	C186.970932,96.803223 190.074066,93.843216 193.503693,90.763908 
z"/>
<path fill="#DD578B" opacity="1.000000" stroke="none" 
	d="
M234.581573,100.368103 
	C230.595413,94.659790 227.007187,88.963112 223.564865,83.179581 
	C222.492004,81.377052 221.813644,79.339714 220.923401,77.001099 
	C224.663956,75.777946 228.435806,74.963554 232.613449,74.554428 
	C234.406250,77.889915 235.615158,80.921867 237.218124,83.728767 
	C240.362000,89.233879 243.725296,94.613678 246.997772,100.045334 
	C243.010452,100.145638 239.023132,100.245926 234.581573,100.368103 
z"/>
<path fill="#E4577F" opacity="1.000000" stroke="none" 
	d="
M247.359436,100.182556 
	C243.725296,94.613678 240.362000,89.233879 237.218124,83.728767 
	C235.615158,80.921867 234.406250,77.889915 233.011658,74.591583 
	C236.761383,74.064545 240.518692,73.905609 244.638046,73.881714 
	C244.048752,79.437553 247.780228,82.886925 250.341049,86.861229 
	C253.623535,91.955551 256.777924,97.132393 259.989990,102.649063 
	C255.901993,102.122894 251.811539,101.221336 247.359436,100.182556 
z"/>
<path fill="#C456AE" opacity="1.000000" stroke="none" 
	d="
M264.872559,197.741455 
	C268.049469,195.612686 271.226379,193.483917 274.748474,191.575867 
	C280.117035,198.556137 285.140472,205.315689 290.163940,212.075241 
	C287.029510,214.356583 283.895111,216.637924 280.112244,218.828720 
	C274.600098,211.739258 269.736328,204.740356 264.872559,197.741455 
z"/>
<path fill="#CD56A1" opacity="1.000000" stroke="none" 
	d="
M290.472595,211.958618 
	C285.140472,205.315689 280.117035,198.556137 275.060303,191.455200 
	C277.175049,188.847778 279.323059,186.581726 282.112305,184.202148 
	C287.848022,191.092133 292.942596,198.095673 298.037140,205.099182 
	C295.618500,207.346786 293.199860,209.594391 290.472595,211.958618 
z"/>
<path fill="#AE54CF" opacity="1.000000" stroke="none" 
	d="
M191.286713,140.732361 
	C189.043030,139.014908 186.792725,137.194916 185.058411,134.972275 
	C182.133240,131.223480 179.719589,127.068489 176.711823,123.394623 
	C175.449432,121.852661 173.220444,121.102028 171.050751,119.932419 
	C172.496414,116.337852 174.322235,112.802528 176.738739,109.202148 
	C181.811401,114.616425 186.230301,120.149460 190.818268,125.538544 
	C192.014938,126.944168 193.738358,127.901367 195.219849,129.064514 
	C193.983932,132.859268 192.748016,136.654022 191.286713,140.732361 
z"/>
<path fill="#F4596A" opacity="1.000000" stroke="none" 
	d="
M271.415649,97.880470 
	C265.724365,91.419312 258.945770,85.617569 258.000488,75.916267 
	C268.075653,77.315887 277.165436,81.406876 285.306458,86.928497 
	C280.727631,90.557243 276.212952,94.135162 271.415649,97.880470 
z"/>
<path fill="#F4596A" opacity="1.000000" stroke="none" 
	d="
M319.396545,157.583801 
	C317.772369,157.775146 315.665131,158.053848 315.025208,157.214233 
	C310.814514,151.689575 306.920044,145.923904 302.885864,139.818909 
	C307.247253,136.249420 311.645172,133.097900 316.500732,129.618423 
	C319.185242,138.304031 320.456207,147.576889 319.396545,157.583801 
z"/>
<path fill="#B456C7" opacity="1.000000" stroke="none" 
	d="
M195.466721,128.847412 
	C193.738358,127.901367 192.014938,126.944168 190.818268,125.538544 
	C186.230301,120.149460 181.811401,114.616425 176.997040,108.987885 
	C178.869873,105.926918 181.075089,103.015160 183.574036,99.933304 
	C188.024704,105.045181 192.159439,110.344856 196.352554,115.597916 
	C197.553802,117.102806 198.924042,118.472801 200.557953,119.937035 
	C199.170593,122.856384 197.442093,125.743340 195.466721,128.847412 
z"/>
<path fill="#DD578B" opacity="1.000000" stroke="none" 
	d="
M291.609283,165.216339 
	C293.731293,166.685211 295.869446,168.202744 297.431854,170.176147 
	C300.104034,173.551300 302.174194,177.419571 304.972046,180.672287 
	C306.567535,182.527130 309.103088,183.573364 311.584351,184.984192 
	C310.076019,188.133896 308.198700,191.283142 305.796265,194.680496 
	C303.156464,192.905380 300.843414,191.049225 298.968781,188.823807 
	C295.172119,184.316772 291.613007,179.609634 287.955963,174.984985 
	C289.092773,171.813354 290.229614,168.641724 291.609283,165.216339 
z"/>
<path fill="#BB56BB" opacity="1.000000" stroke="none" 
	d="
M264.520325,197.845657 
	C269.736328,204.740356 274.600098,211.739258 279.773804,218.892517 
	C276.682281,220.769730 273.280762,222.492599 269.369568,223.931122 
	C266.275604,219.625092 263.543457,215.688889 261.153564,211.554840 
	C259.221588,208.212906 257.701965,204.632614 255.999420,201.158051 
	C258.722321,200.088654 261.445190,199.019257 264.520325,197.845657 
z"/>
<path fill="#B456C7" opacity="1.000000" stroke="none" 
	d="
M255.601898,201.147812 
	C257.701965,204.632614 259.221588,208.212906 261.153564,211.554840 
	C263.543457,215.688889 266.275604,219.625092 269.003784,223.997864 
	C265.681946,225.456665 262.216187,226.564407 258.375549,227.294632 
	C255.581207,222.363541 253.197708,217.790344 250.730408,213.262817 
	C248.875992,209.859985 246.913940,206.515808 244.999817,203.145508 
	C248.401337,202.476196 251.802856,201.806885 255.601898,201.147812 
z"/>
<path fill="#0F0F0F" opacity="1.000000" stroke="none" 
	d="
M215.087769,261.131989 
	C217.582657,266.436493 217.725128,271.423035 215.342575,276.382477 
	C213.132614,280.982605 209.597260,283.668915 204.297806,283.335938 
	C199.181122,283.014496 195.697174,279.990814 194.631317,275.322845 
	C193.779495,271.592194 193.823303,267.370758 194.634583,263.619110 
	C195.648682,258.929474 199.220047,255.866608 204.097870,255.167480 
	C208.874863,254.482803 212.418320,256.794128 215.087769,261.131989 
M207.029709,279.919220 
	C213.466232,276.577637 215.412933,266.202698 210.552536,260.878479 
	C207.970016,258.049530 204.822098,257.709442 201.557129,259.470032 
	C197.933655,261.423920 196.360535,267.280579 197.699005,272.867615 
	C198.781128,277.384552 201.102112,280.366943 207.029709,279.919220 
z"/>
<path fill="#0F0F0F" opacity="1.000000" stroke="none" 
	d="
M160.697723,255.990356 
	C168.204300,261.158142 170.237091,270.316193 165.745468,277.616638 
	C163.405304,281.420197 160.061234,283.645325 155.416260,283.359467 
	C150.774460,283.073761 147.585602,280.561920 145.956467,276.367371 
	C143.658966,270.451935 143.735214,264.553436 147.884521,259.404388 
	C151.089249,255.427536 155.286911,253.892822 160.697723,255.990356 
M149.967346,276.314728 
	C151.917496,279.599457 155.213806,281.322906 158.312790,279.581818 
	C160.798340,278.185333 162.926895,274.996857 163.769974,272.172577 
	C164.547272,269.568695 164.162918,265.985107 162.882172,263.584106 
	C161.684906,261.339539 158.572098,258.661774 156.423111,258.762085 
	C153.947815,258.877563 150.172714,261.416718 149.527969,263.645569 
	C148.463638,267.324829 149.457947,271.599609 149.967346,276.314728 
z"/>
<path fill="#D45798" opacity="1.000000" stroke="none" 
	d="
M287.696564,175.196686 
	C291.613007,179.609634 295.172119,184.316772 298.968781,188.823807 
	C300.843414,191.049225 303.156464,192.905380 305.613068,194.964203 
	C303.513794,198.260406 301.072632,201.521011 298.334290,204.940399 
	C292.942596,198.095673 287.848022,191.092133 282.409760,184.055481 
	C283.856415,181.151031 285.646790,178.279709 287.696564,175.196686 
z"/>
<path fill="#A655DA" opacity="1.000000" stroke="none" 
	d="
M240.349426,229.380890 
	C239.434967,222.077225 234.030426,217.606522 230.560379,212.080521 
	C228.110123,208.178513 225.583405,204.324524 223.099167,200.069290 
	C226.565536,200.573822 230.023575,201.458160 233.783875,202.923126 
	C235.953125,206.401855 237.934464,209.233643 239.662292,212.212463 
	C242.853317,217.713898 245.895691,223.301559 249.000000,228.853287 
	C246.246063,229.083145 243.492142,229.313004 240.349426,229.380890 
z"/>
<path fill="#AE54CF" opacity="1.000000" stroke="none" 
	d="
M249.409119,228.898590 
	C245.895691,223.301559 242.853317,217.713898 239.662292,212.212463 
	C237.934464,209.233643 235.953125,206.401855 234.084305,203.133484 
	C237.418991,202.852219 240.755508,202.941223 244.545929,203.087860 
	C246.913940,206.515808 248.875992,209.859985 250.730408,213.262817 
	C253.197708,217.790344 255.581207,222.363541 258.002014,227.294281 
	C255.274963,228.095581 252.546585,228.519730 249.409119,228.898590 
z"/>
<path fill="#121212" opacity="1.000000" stroke="none" 
	d="
M235.989532,280.105408 
	C236.977829,279.185730 238.429428,278.449158 238.877289,277.315887 
	C241.312317,271.154236 243.406311,264.857697 245.849823,258.699677 
	C246.350220,257.438629 247.818176,255.777634 248.881546,255.747192 
	C249.917419,255.717545 251.510208,257.346283 251.990036,258.583649 
	C255.043854,266.458252 257.857300,274.426056 261.287140,283.837189 
	C259.114075,282.666809 256.946045,282.163177 256.800323,281.313049 
	C255.847656,275.753693 252.119003,275.434662 247.725372,275.873199 
	C246.260437,276.019379 244.768631,275.896271 243.674698,275.896271 
	C241.147034,278.482971 242.689743,284.317017 236.374725,282.528137 
	C235.968872,281.445465 235.979202,280.775421 235.989532,280.105408 
M252.995605,270.970612 
	C251.744354,267.504181 250.493118,264.037750 248.796356,259.337006 
	C247.028976,264.639496 245.717392,268.574524 244.066925,273.526276 
	C247.707291,272.840790 250.411575,272.331573 252.995605,270.970612 
z"/>
<path fill="#141414" opacity="1.000000" stroke="none" 
	d="
M182.117172,282.869385 
	C180.753281,282.484680 178.909592,281.802643 178.970123,281.493652 
	C180.983170,271.217010 174.283646,264.065979 169.694824,256.093475 
	C173.216202,255.684814 173.216202,255.684814 180.577759,267.079163 
	C185.241074,264.323914 184.180481,255.920776 192.488098,255.290924 
	C186.616623,264.191254 180.712387,272.176178 182.117172,282.869385 
z"/>
<path fill="#BB56BB" opacity="1.000000" stroke="none" 
	d="
M275.917694,100.797867 
	C276.313263,100.203850 276.708832,99.609840 277.701935,99.067184 
	C283.972839,106.604736 289.747681,114.017029 295.277069,121.608078 
	C298.077118,125.452141 300.433868,129.619095 302.991058,133.640060 
	C301.604034,134.167725 300.217010,134.695389 298.410645,134.884735 
	C294.858978,129.730316 291.737549,124.907089 288.591644,120.099854 
	C284.376923,113.659370 280.143250,107.231270 275.917694,100.797867 
z"/>
<path fill="#C456AE" opacity="1.000000" stroke="none" 
	d="
M303.288605,133.552704 
	C300.433868,129.619095 298.077118,125.452141 295.277069,121.608078 
	C289.747681,114.017029 283.972839,106.604736 277.960175,98.966492 
	C278.691711,97.842087 279.762573,96.869728 281.475220,95.992249 
	C287.345642,103.264511 292.489471,110.505867 297.834778,117.595268 
	C301.042877,121.850151 304.565613,125.867844 307.946930,129.992142 
	C306.493347,131.149887 305.039734,132.307617 303.288605,133.552704 
z"/>
<path fill="#141414" opacity="1.000000" stroke="none" 
	d="
M358.970886,275.099030 
	C360.017792,271.282623 361.064697,267.466248 362.311127,262.922394 
	C359.817261,263.302460 358.610199,263.486450 356.841125,263.756042 
	C360.044983,258.907532 363.019012,254.406830 365.993011,249.906143 
	C366.327118,250.007446 366.661194,250.108749 366.995270,250.210052 
	C366.655762,252.839981 366.316254,255.469925 365.992828,257.975281 
	C367.687744,258.972412 369.231354,259.880493 370.805298,260.806458 
	C368.544678,262.134430 365.541779,262.966125 365.395081,264.151367 
	C364.854645,268.517700 365.260284,273.001099 365.310059,277.440491 
	C366.486938,277.359680 367.663849,277.278870 370.132446,277.109375 
	C368.129852,279.081116 366.510162,280.675873 364.890503,282.270599 
	C363.613647,280.582855 362.344604,278.889130 361.055145,277.211090 
	C360.668976,276.708557 360.225647,276.249969 359.391083,275.688599 
	C358.982758,275.436920 358.981842,275.267944 358.970886,275.099030 
z"/>
<path fill="#0F0F0F" opacity="1.000000" stroke="none" 
	d="
M334.152344,283.397156 
	C334.056549,286.875366 334.323242,290.417542 333.725494,293.807220 
	C333.380951,295.760864 331.638977,297.468048 330.526031,299.286163 
	C330.147675,299.042450 329.769348,298.798737 329.391022,298.555023 
	C329.954681,291.958282 330.518372,285.361511 331.401245,278.126617 
	C331.429382,276.641632 331.138336,275.794830 330.847290,274.947998 
	C331.915894,271.208252 332.984528,267.468506 334.053162,263.728760 
	C334.690613,263.880951 335.328094,264.033173 335.965546,264.185364 
	C335.825867,265.378937 335.686188,266.572510 335.546936,267.761810 
	C342.927277,265.769379 344.850372,267.682068 342.798584,275.745453 
	C342.369507,276.853180 342.178650,277.421783 341.842529,278.049316 
	C341.801880,278.076660 341.906433,278.045044 342.343414,278.044342 
	C342.897980,278.088104 343.120148,278.100922 343.342346,278.113770 
	C342.649994,278.832092 341.957642,279.550415 340.557434,280.085022 
	C339.511963,279.494843 339.174347,279.088318 338.887512,278.302856 
	C339.262848,275.073730 339.587494,272.223541 339.912109,269.373352 
	C339.371368,269.288605 338.830597,269.203888 338.289856,269.119141 
	C335.298859,271.912537 334.467743,275.494263 334.687866,279.784546 
	C334.336731,281.142303 334.244537,282.269745 334.152344,283.397156 
z"/>
<path fill="#B456C7" opacity="1.000000" stroke="none" 
	d="
M275.625671,100.989105 
	C280.143250,107.231270 284.376923,113.659370 288.591644,120.099854 
	C291.737549,124.907089 294.858978,129.730316 298.039368,134.927368 
	C296.643494,135.527283 295.199524,135.746262 293.372925,135.545029 
	C289.511322,129.768875 286.202881,124.291443 282.500092,119.095001 
	C279.471008,114.844032 275.971680,110.928108 272.680817,106.863647 
	C273.565094,104.969223 274.449371,103.074791 275.625671,100.989105 
z"/>
<path fill="#CD56A1" opacity="1.000000" stroke="none" 
	d="
M308.232117,129.882202 
	C304.565613,125.867844 301.042877,121.850151 297.834778,117.595268 
	C292.489471,110.505867 287.345642,103.264511 281.774536,95.912079 
	C282.733307,94.883591 284.034576,94.030167 285.673553,93.525726 
	C286.166809,94.506905 286.154663,95.256477 286.502869,95.753761 
	C292.160095,103.833435 297.742279,111.970787 303.622803,119.886086 
	C305.605011,122.554153 308.370361,124.640366 310.777802,126.992508 
	C310.024323,127.919106 309.270813,128.845688 308.232117,129.882202 
z"/>
<path fill="#121212" opacity="1.000000" stroke="none" 
	d="
M140.361313,283.035767 
	C135.800293,283.035828 131.666489,283.035828 127.306396,283.035828 
	C127.306396,273.833527 127.306396,264.933868 127.306396,255.975327 
	C130.412170,254.730911 131.050781,256.125519 131.001282,258.917877 
	C130.880661,265.720062 130.961975,272.525848 130.961975,279.612579 
	C134.982330,279.612579 138.746140,279.612579 142.509964,279.612579 
	C142.827377,280.024078 143.144775,280.435577 143.462189,280.847076 
	C142.570969,281.576630 141.679764,282.306183 140.361313,283.035767 
z"/>
<path fill="#D45798" opacity="1.000000" stroke="none" 
	d="
M311.005249,126.789261 
	C308.370361,124.640366 305.605011,122.554153 303.622803,119.886086 
	C297.742279,111.970787 292.160095,103.833435 286.502869,95.753761 
	C286.154663,95.256477 286.166809,94.506905 286.005859,93.518410 
	C286.790192,92.853592 287.579926,92.545082 288.736572,92.582695 
	C293.554047,99.214294 297.877075,105.595505 302.499084,111.752266 
	C305.682373,115.992607 309.279846,119.922005 312.692230,123.990372 
	C312.205719,124.855583 311.719208,125.720795 311.005249,126.789261 
z"/>
<path fill="#A655DA" opacity="1.000000" stroke="none" 
	d="
M272.471741,107.145782 
	C275.971680,110.928108 279.471008,114.844032 282.500092,119.095001 
	C286.202881,124.291443 289.511322,129.768875 292.996887,135.483063 
	C291.233826,135.604172 289.464142,135.367004 287.339844,134.610382 
	C285.627228,131.668777 284.539612,129.036789 282.855896,126.867500 
	C279.171997,122.121178 275.185486,117.609703 271.322571,113.002304 
	C271.635925,111.144173 271.949310,109.286049 272.471741,107.145782 
z"/>
<path fill="#141414" opacity="1.000000" stroke="none" 
	d="
M288.646271,268.784119 
	C289.372681,273.167114 289.624359,277.288696 285.881439,279.899902 
	C284.075043,281.160126 281.353638,282.132690 279.354034,281.725494 
	C278.060425,281.462036 276.692993,278.541565 276.465668,276.676788 
	C275.958557,272.517548 280.414154,266.555756 284.442688,265.983673 
	C285.659607,265.810852 287.148560,267.553345 288.646271,268.784119 
M280.469879,271.482056 
	C280.340973,273.261475 279.874756,275.105743 280.199982,276.797882 
	C280.422455,277.955536 281.747894,278.901276 282.580261,279.941742 
	C283.345306,278.658966 285.022827,277.025635 284.691772,276.163910 
	C283.922852,274.162415 282.184601,272.533264 280.469879,271.482056 
z"/>
<path fill="#DD578B" opacity="1.000000" stroke="none" 
	d="
M312.900330,123.670303 
	C309.279846,119.922005 305.682373,115.992607 302.499084,111.752266 
	C297.877075,105.595505 293.554047,99.214294 289.054901,92.600723 
	C290.398315,92.161446 291.790405,92.050262 293.632385,92.372833 
	C298.285492,98.939125 302.361206,105.164810 306.747559,111.163414 
	C308.820618,113.998482 311.488525,116.398605 313.886902,118.995804 
	C313.627411,120.447281 313.367920,121.898758 312.900330,123.670303 
z"/>
<path fill="#121212" opacity="1.000000" stroke="none" 
	d="
M358.552429,274.817902 
	C358.981842,275.267944 358.982758,275.436920 358.968506,275.732666 
	C358.423340,276.218872 357.734100,276.465881 357.365631,276.954712 
	C351.856384,284.263885 349.843262,284.335632 344.435028,277.046326 
	C344.051361,276.566315 344.030914,276.375946 344.010468,276.185547 
	C346.117157,273.633392 347.997375,270.833954 350.414520,268.620880 
	C351.889893,267.270020 354.191254,266.821320 356.121613,265.967407 
	C356.832703,268.002930 357.620972,270.016357 358.213928,272.085724 
	C358.428223,272.833710 358.174225,273.715851 358.552429,274.817902 
M354.354675,276.514618 
	C353.190735,274.331818 352.026794,272.148987 350.862823,269.966187 
	C349.861969,272.398804 349.502411,274.631348 349.689240,276.817200 
	C349.784302,277.929688 350.861938,278.958191 351.495392,280.024658 
	C352.397369,279.087372 353.299347,278.150055 354.354675,276.514618 
z"/>
<path fill="#292929" opacity="1.000000" stroke="none" 
	d="
M321.052582,279.829071 
	C320.074402,279.550232 318.353088,278.838562 318.226562,279.055786 
	C314.921143,284.730713 311.350769,282.745483 307.306458,279.416870 
	C306.939728,278.804657 306.953430,278.346985 306.967102,277.889313 
	C308.835999,274.482117 310.503815,270.936157 312.699524,267.754486 
	C313.336487,266.831482 315.485352,266.951813 316.941132,266.593872 
	C317.100983,268.239380 317.871307,270.156616 317.286407,271.470612 
	C316.248291,273.802673 314.387970,275.768677 312.523224,278.374786 
	C316.139374,280.931671 318.509277,278.991608 320.966858,276.327698 
	C321.115173,277.362091 321.083862,278.595581 321.052582,279.829071 
z"/>
<path fill="#1D1D1D" opacity="1.000000" stroke="none" 
	d="
M321.037567,280.168549 
	C321.083862,278.595581 321.115173,277.362091 321.117737,275.888428 
	C320.998047,273.650696 320.698181,271.635193 320.867859,269.660004 
	C321.090576,267.067413 321.683411,264.506622 322.117065,261.932129 
	C322.519196,262.063293 322.921326,262.194458 323.323456,262.325623 
	C325.248535,266.789215 327.171661,271.253632 329.112671,275.710297 
	C329.150604,275.797333 329.442078,275.870636 329.540070,275.815857 
	C329.787567,275.677490 329.992065,275.462280 330.530579,275.112946 
	C331.138336,275.794830 331.429382,276.641632 331.494446,277.699188 
	C329.549377,279.018341 327.754028,280.026337 326.130585,281.260468 
	C324.082520,282.817322 322.397919,282.996307 321.037567,280.168549 
z"/>
<path fill="#E4577F" opacity="1.000000" stroke="none" 
	d="
M314.048706,118.652771 
	C311.488525,116.398605 308.820618,113.998482 306.747559,111.163414 
	C302.361206,105.164810 298.285492,98.939125 294.044067,92.461227 
	C295.754242,92.386528 297.502625,92.657196 299.631134,93.401123 
	C302.509705,97.873741 304.797302,102.027397 307.574310,105.822968 
	C309.738403,108.780777 312.511353,111.293098 315.013733,114.003403 
	C314.746002,115.438850 314.478241,116.874298 314.048706,118.652771 
z"/>
<path fill="#9F54E5" opacity="1.000000" stroke="none" 
	d="
M271.237305,113.413971 
	C275.185486,117.609703 279.171997,122.121178 282.855896,126.867500 
	C284.539612,129.036789 285.627228,131.668777 286.991425,134.445724 
	C277.698517,132.477615 271.587860,124.388954 271.237305,113.413971 
z"/>
<path fill="#000000" opacity="1.000000" stroke="none" 
	d="
M235.541504,279.992493 
	C235.979202,280.775421 235.968872,281.445465 235.970230,282.450378 
	C231.046143,282.785278 226.110352,282.785278 220.815994,282.785278 
	C220.815994,274.471558 220.772461,266.258087 220.883942,258.046692 
	C220.894989,257.232910 221.852997,256.432007 222.371506,255.625122 
	C223.007141,256.510101 224.174805,257.383667 224.194077,258.281860 
	C224.345917,265.359009 224.278397,272.440857 224.278397,279.879547 
	C228.213425,279.879547 231.653458,279.879547 235.541504,279.992493 
z"/>
<path fill="#EC5974" opacity="1.000000" stroke="none" 
	d="
M315.077393,113.579346 
	C312.511353,111.293098 309.738403,108.780777 307.574310,105.822968 
	C304.797302,102.027397 302.509705,97.873741 300.005676,93.517586 
	C309.386932,96.539268 314.816772,102.914177 315.077393,113.579346 
z"/>
<path fill="#141414" opacity="1.000000" stroke="none" 
	d="
M306.536865,278.023102 
	C306.953430,278.346985 306.939728,278.804657 306.953217,279.604736 
	C305.717682,280.657867 304.380341,282.005310 303.216949,281.868866 
	C302.355377,281.767883 301.318481,279.813141 301.078186,278.547821 
	C300.716949,276.645447 300.984161,274.623718 300.268402,272.287323 
	C299.815765,273.399841 299.363098,274.512360 298.344604,275.711395 
	C297.502533,273.917175 297.226318,272.036407 296.950104,270.155670 
	C297.197784,270.883270 297.445465,271.610840 297.881714,272.892334 
	C299.641144,270.318085 301.094391,268.191742 302.547668,266.065430 
	C303.057068,266.129791 303.566467,266.194122 304.075897,266.258453 
	C304.339844,268.340027 304.537506,270.432831 304.887177,272.499908 
	C305.208588,274.399963 305.693634,276.272339 306.536865,278.023102 
z"/>
<path fill="#0F0F0F" opacity="1.000000" stroke="none" 
	d="
M297.004547,269.773071 
	C297.226318,272.036407 297.502533,273.917175 298.143860,275.996033 
	C297.638123,278.359985 296.767303,280.525818 295.729492,283.106995 
	C292.956299,280.083954 291.494995,270.926941 292.929749,268.835052 
	C294.606354,266.390564 296.153259,265.715820 297.004547,269.773071 
z"/>
<path fill="#1D1D1D" opacity="1.000000" stroke="none" 
	d="
M334.358215,283.050903 
	C334.244537,282.269745 334.336731,281.142303 335.088867,279.757935 
	C336.778137,279.227905 337.807434,278.954865 338.836761,278.681824 
	C339.174347,279.088318 339.511963,279.494843 340.204468,280.088287 
	C338.560974,281.085022 336.562531,281.894836 334.358215,283.050903 
z"/>
<path fill="#1D1D1D" opacity="1.000000" stroke="none" 
	d="
M343.783844,276.111572 
	C344.030914,276.375946 344.051361,276.566315 344.092346,277.043213 
	C344.159454,277.650452 344.043518,277.893829 343.553772,278.086823 
	C343.120148,278.100922 342.897980,278.088104 342.338074,278.037842 
	C342.000366,278.000458 341.987793,277.990356 341.987793,277.990356 
	C342.178650,277.421783 342.369507,276.853180 342.823120,276.125366 
	C343.085876,275.966156 343.557220,276.037628 343.783844,276.111572 
z"/>
<path fill="#F8F8F8" opacity="1.000000" stroke="none" 
	d="
M206.634079,279.965698 
	C201.102112,280.366943 198.781128,277.384552 197.699005,272.867615 
	C196.360535,267.280579 197.933655,261.423920 201.557129,259.470032 
	C204.822098,257.709442 207.970016,258.049530 210.552536,260.878479 
	C215.412933,266.202698 213.466232,276.577637 206.634079,279.965698 
z"/>
<path fill="#F8F8F8" opacity="1.000000" stroke="none" 
	d="
M149.776001,275.969055 
	C149.457947,271.599609 148.463638,267.324829 149.527969,263.645569 
	C150.172714,261.416718 153.947815,258.877563 156.423111,258.762085 
	C158.572098,258.661774 161.684906,261.339539 162.882172,263.584106 
	C164.162918,265.985107 164.547272,269.568695 163.769974,272.172577 
	C162.926895,274.996857 160.798340,278.185333 158.312790,279.581818 
	C155.213806,281.322906 151.917496,279.599457 149.776001,275.969055 
z"/>
<path fill="#EDEDED" opacity="1.000000" stroke="none" 
	d="
M253.055725,271.396484 
	C250.411575,272.331573 247.707291,272.840790 244.066925,273.526276 
	C245.717392,268.574524 247.028976,264.639496 248.796356,259.337006 
	C250.493118,264.037750 251.744354,267.504181 253.055725,271.396484 
z"/>
<path fill="#EDEDED" opacity="1.000000" stroke="none" 
	d="
M338.887512,278.302856 
	C337.807434,278.954865 336.778137,279.227905 335.347778,279.527588 
	C334.467743,275.494263 335.298859,271.912537 338.289856,269.119141 
	C338.830597,269.203888 339.371368,269.288605 339.912109,269.373352 
	C339.587494,272.223541 339.262848,275.073730 338.887512,278.302856 
z"/>
<path fill="#1D1D1D" opacity="1.000000" stroke="none" 
	d="
M342.005676,278.006958 
	C341.906433,278.045044 341.801880,278.076660 341.842529,278.049316 
	C341.987793,277.990356 342.000366,278.000458 342.005676,278.006958 
z"/>
<path fill="#FFFFFF" opacity="1.000000" stroke="none" 
	d="
M280.654541,271.117615 
	C282.184601,272.533264 283.922852,274.162415 284.691772,276.163910 
	C285.022827,277.025635 283.345306,278.658966 282.580261,279.941742 
	C281.747894,278.901276 280.422455,277.955536 280.199982,276.797882 
	C279.874756,275.105743 280.340973,273.261475 280.654541,271.117615 
z"/>
<path fill="#EDEDED" opacity="1.000000" stroke="none" 
	d="
M354.278015,276.863708 
	C353.299347,278.150055 352.397369,279.087372 351.495422,280.024658 
	C350.861938,278.958191 349.784302,277.929688 349.689240,276.817200 
	C349.502411,274.631348 349.861969,272.398804 350.862823,269.966187 
	C352.026794,272.148987 353.190735,274.331818 354.278015,276.863708 
z"/>
</svg>