<svg width="390" height="585" viewBox="0 0 390 585" fill="none" xmlns="http://www.w3.org/2000/svg">
<g opacity="0.28" filter="url(#filter0_f_11_49)">
<ellipse cx="196.5" cy="459" rx="138.5" ry="71" fill="black" fill-opacity="0.16"/>
</g>
<g filter="url(#filter1_bd_11_49)">
<path d="M226 460H120.257V173.5C120.257 140.363 93.3943 113.5 60.2572 113.5H47.5L0.5 0H96.5H110.5C182.849 0 241.5 58.6507 241.5 131V451L226 460Z" fill="url(#paint0_linear_11_49)"/>
<path d="M226 129.492C226 57.9711 168.021 0 96.5 0M225.5 129.492V459.5H120.757V173.5C120.757 140.087 93.6704 113 60.2572 113H47.8341L1.24822 0.5H96.5C167.745 0.5 225.5 58.2473 225.5 129.492ZM226.5 459.132V129.492C226.5 63.2409 176.941 8.57171 112.874 0.52116C183.852 1.78736 241 59.7199 241 131V450.712L226.5 459.132Z" stroke="#9C9292" stroke-opacity="0.31"/>
</g>
<path d="M111 0.5H106L134.5 5L155 14L176.5 25.5L191 40L205 55.5L215.5 76.5L226.5 118.5V459.5L242 450.5V131.5C242 59.1507 183.349 0.5 111 0.5Z" fill="url(#paint1_linear_11_49)"/>
<defs>
<filter id="filter0_f_11_49" x="3" y="333" width="387" height="252" filterUnits="userSpaceOnUse" color-interpolation-filters="sRGB">
<feFlood flood-opacity="0" result="BackgroundImageFix"/>
<feBlend mode="normal" in="SourceGraphic" in2="BackgroundImageFix" result="shape"/>
<feGaussianBlur stdDeviation="27.5" result="effect1_foregroundBlur_11_49"/>
</filter>
<filter id="filter1_bd_11_49" x="-49.5" y="-50" width="341" height="560" filterUnits="userSpaceOnUse" color-interpolation-filters="sRGB">
<feFlood flood-opacity="0" result="BackgroundImageFix"/>
<feGaussianBlur in="BackgroundImageFix" stdDeviation="25"/>
<feComposite in2="SourceAlpha" operator="in" result="effect1_backgroundBlur_11_49"/>
<feColorMatrix in="SourceAlpha" type="matrix" values="0 0 0 0 0 0 0 0 0 0 0 0 0 0 0 0 0 0 127 0" result="hardAlpha"/>
<feOffset dx="9" dy="8"/>
<feGaussianBlur stdDeviation="3"/>
<feComposite in2="hardAlpha" operator="out"/>
<feColorMatrix type="matrix" values="0 0 0 0 0.383333 0 0 0 0 0.356181 0 0 0 0 0.356181 0 0 0 0.2 0"/>
<feBlend mode="normal" in2="effect1_backgroundBlur_11_49" result="effect2_dropShadow_11_49"/>
<feBlend mode="normal" in="SourceGraphic" in2="effect2_dropShadow_11_49" result="shape"/>
</filter>
<linearGradient id="paint0_linear_11_49" x1="99.7095" y1="74" x2="217.509" y2="458.283" gradientUnits="userSpaceOnUse">
<stop stop-color="#FF00F5"/>
<stop offset="1" stop-color="#59BFF6"/>
</linearGradient>
<linearGradient id="paint1_linear_11_49" x1="111" y1="72" x2="174" y2="459.5" gradientUnits="userSpaceOnUse">
<stop stop-color="#ED00E4"/>
<stop offset="1" stop-color="#55A9DC"/>
</linearGradient>
</defs>
</svg>
