<svg width="163" height="40" viewBox="0 0 163 40" fill="none" xmlns="http://www.w3.org/2000/svg">
<path d="M4.44723 14.6055V27.2227H11.0683V29H2.06441V14.6055H4.44723ZM25.4504 21.7344C25.4504 22.9453 25.2941 24.013 24.9816 24.9375C24.6821 25.862 24.2589 26.6302 23.7121 27.2422C23.1782 27.8542 22.5467 28.3164 21.8175 28.6289C21.1014 28.9414 20.3136 29.0977 19.4543 29.0977C18.5949 29.0977 17.8006 28.9414 17.0714 28.6289C16.3553 28.3164 15.7238 27.8542 15.1769 27.2422C14.6431 26.6302 14.2199 25.862 13.9074 24.9375C13.6079 24.013 13.4582 22.9453 13.4582 21.7344C13.4582 20.5234 13.6079 19.4622 13.9074 18.5508C14.2199 17.6263 14.6431 16.8581 15.1769 16.2461C15.7238 15.6341 16.3553 15.1719 17.0714 14.8594C17.8006 14.5339 18.5949 14.3711 19.4543 14.3711C20.3136 14.3711 21.1014 14.5339 21.8175 14.8594C22.5467 15.1719 23.1782 15.6341 23.7121 16.2461C24.2589 16.8581 24.6821 17.6263 24.9816 18.5508C25.2941 19.4622 25.4504 20.5234 25.4504 21.7344ZM19.3957 27.1836C19.8774 27.1836 20.3332 27.0924 20.7629 26.9102C21.2056 26.7148 21.5962 26.4023 21.9347 25.9727C22.2863 25.543 22.5597 24.9831 22.755 24.293C22.9504 23.5898 23.0545 22.737 23.0675 21.7344C23.0545 20.7578 22.9504 19.931 22.755 19.2539C22.5727 18.5638 22.3123 17.9974 21.9738 17.5547C21.6483 17.112 21.2707 16.793 20.841 16.5977C20.4243 16.4023 19.9816 16.3047 19.5129 16.3047C19.0311 16.3047 18.5688 16.3958 18.1261 16.5781C17.6964 16.7604 17.3058 17.0729 16.9543 17.5156C16.6157 17.9453 16.3488 18.5052 16.1535 19.1953C15.9582 19.8854 15.854 20.7318 15.841 21.7344C15.854 22.7109 15.9517 23.5443 16.1339 24.2344C16.3293 24.9245 16.5897 25.4909 16.9152 25.9336C17.2537 26.3633 17.6313 26.6823 18.048 26.8906C18.4777 27.0859 18.9269 27.1836 19.3957 27.1836ZM39.0316 14.6055L34.7543 23.1406V29H32.3714V23.3359L28.3089 14.6055H30.9847L33.4652 21.0508H33.68L36.3558 14.6055H39.0316ZM53.8433 21.7344C53.8433 22.9453 53.6871 24.013 53.3746 24.9375C53.0751 25.862 52.6519 26.6302 52.105 27.2422C51.5712 27.8542 50.9397 28.3164 50.2105 28.6289C49.4944 28.9414 48.7066 29.0977 47.8472 29.0977C46.9879 29.0977 46.1936 28.9414 45.4644 28.6289C44.7483 28.3164 44.1168 27.8542 43.5699 27.2422C43.036 26.6302 42.6129 25.862 42.3004 24.9375C42.0009 24.013 41.8511 22.9453 41.8511 21.7344C41.8511 20.5234 42.0009 19.4622 42.3004 18.5508C42.6129 17.6263 43.036 16.8581 43.5699 16.2461C44.1168 15.6341 44.7483 15.1719 45.4644 14.8594C46.1936 14.5339 46.9879 14.3711 47.8472 14.3711C48.7066 14.3711 49.4944 14.5339 50.2105 14.8594C50.9397 15.1719 51.5712 15.6341 52.105 16.2461C52.6519 16.8581 53.0751 17.6263 53.3746 18.5508C53.6871 19.4622 53.8433 20.5234 53.8433 21.7344ZM47.7886 27.1836C48.2704 27.1836 48.7261 27.0924 49.1558 26.9102C49.5985 26.7148 49.9892 26.4023 50.3277 25.9727C50.6793 25.543 50.9527 24.9831 51.148 24.293C51.3433 23.5898 51.4475 22.737 51.4605 21.7344C51.4475 20.7578 51.3433 19.931 51.148 19.2539C50.9657 18.5638 50.7053 17.9974 50.3668 17.5547C50.0412 17.112 49.6636 16.793 49.2339 16.5977C48.8173 16.4023 48.3746 16.3047 47.9058 16.3047C47.4241 16.3047 46.9618 16.3958 46.5191 16.5781C46.0894 16.7604 45.6988 17.0729 45.3472 17.5156C45.0087 17.9453 44.7418 18.5052 44.5464 19.1953C44.3511 19.8854 44.247 20.7318 44.2339 21.7344C44.247 22.7109 44.3446 23.5443 44.5269 24.2344C44.7222 24.9245 44.9826 25.4909 45.3082 25.9336C45.6467 26.3633 46.0243 26.6823 46.441 26.8906C46.8707 27.0859 47.3199 27.1836 47.7886 27.1836ZM59.8464 14.6055V27.2227H66.4675V29H57.4636V14.6055H59.8464ZM68.5839 29L73.623 14.625H75.9472L80.9472 29H78.5254L77.4902 26.0117H72.08L71.0254 29H68.5839ZM72.6269 24.4297H76.9238L74.7949 18.2188L72.6269 24.4297Z" fill="black"/>
<path d="M100.379 22.246C100.569 22.246 100.716 22.3413 100.819 22.532C100.921 22.7227 100.973 22.9647 100.973 23.258C100.973 23.962 100.76 24.38 100.335 24.512C99.4547 24.82 98.4867 24.996 97.4307 25.04C97.152 26.272 96.602 27.262 95.7807 28.01C94.9594 28.7433 94.028 29.11 92.9867 29.11C92.1067 29.11 91.3514 28.8973 90.7207 28.472C90.1047 28.0467 89.6354 27.482 89.3127 26.778C88.99 26.074 88.8287 25.3113 88.8287 24.49C88.8287 23.3753 89.0414 22.3853 89.4667 21.52C89.892 20.64 90.4787 19.958 91.2267 19.474C91.9747 18.9753 92.8034 18.726 93.7127 18.726C94.8274 18.726 95.722 19.1147 96.3967 19.892C97.086 20.6547 97.4894 21.6007 97.6067 22.73C98.296 22.686 99.1174 22.5393 100.071 22.29C100.188 22.2607 100.291 22.246 100.379 22.246ZM93.1627 26.778C93.632 26.778 94.0354 26.5873 94.3727 26.206C94.7247 25.8247 94.9594 25.2747 95.0767 24.556C94.622 24.248 94.27 23.8447 94.0207 23.346C93.786 22.8473 93.6687 22.3193 93.6687 21.762C93.6687 21.5273 93.6907 21.2927 93.7347 21.058H93.6247C93.038 21.058 92.5467 21.344 92.1507 21.916C91.7694 22.4733 91.5787 23.2653 91.5787 24.292C91.5787 25.0987 91.7327 25.7147 92.0407 26.14C92.3634 26.5653 92.7374 26.778 93.1627 26.778ZM101.416 29.11C100.859 29.11 100.463 28.8167 100.228 28.23C100.008 27.6433 99.8985 26.7047 99.8985 25.414C99.8985 23.5073 100.17 21.696 100.712 19.98C100.844 19.5547 101.057 19.2467 101.35 19.056C101.658 18.8507 102.084 18.748 102.626 18.748C102.92 18.748 103.125 18.7847 103.242 18.858C103.36 18.9313 103.418 19.0707 103.418 19.276C103.418 19.5107 103.308 20.0387 103.088 20.86C102.942 21.4467 102.824 21.96 102.736 22.4C102.648 22.84 102.575 23.3827 102.516 24.028C103 22.7667 103.543 21.74 104.144 20.948C104.746 20.156 105.332 19.5913 105.904 19.254C106.491 18.9167 107.026 18.748 107.51 18.748C108.464 18.748 108.94 19.2247 108.94 20.178C108.94 20.75 108.779 21.784 108.456 23.28C108.178 24.556 108.038 25.3993 108.038 25.81C108.038 26.3967 108.251 26.69 108.676 26.69C108.97 26.69 109.314 26.514 109.71 26.162C110.121 25.7953 110.664 25.2087 111.338 24.402C111.514 24.1967 111.712 24.094 111.932 24.094C112.123 24.094 112.27 24.182 112.372 24.358C112.49 24.534 112.548 24.776 112.548 25.084C112.548 25.6707 112.409 26.1253 112.13 26.448C111.5 27.2253 110.818 27.8633 110.084 28.362C109.366 28.8607 108.544 29.11 107.62 29.11C106.872 29.11 106.308 28.8973 105.926 28.472C105.545 28.032 105.354 27.4013 105.354 26.58C105.354 26.1693 105.457 25.436 105.662 24.38C105.853 23.456 105.948 22.818 105.948 22.466C105.948 22.2313 105.868 22.114 105.706 22.114C105.516 22.114 105.244 22.3633 104.892 22.862C104.555 23.346 104.203 23.9913 103.836 24.798C103.484 25.6047 103.198 26.4553 102.978 27.35C102.817 28.0393 102.626 28.5087 102.406 28.758C102.201 28.9927 101.871 29.11 101.416 29.11ZM121.351 24.094C121.541 24.094 121.688 24.182 121.791 24.358C121.908 24.534 121.967 24.776 121.967 25.084C121.967 25.6707 121.827 26.1253 121.549 26.448C121.006 27.108 120.236 27.7167 119.239 28.274C118.256 28.8313 117.2 29.11 116.071 29.11C114.531 29.11 113.335 28.692 112.485 27.856C111.634 27.02 111.209 25.876 111.209 24.424C111.209 23.412 111.421 22.4733 111.847 21.608C112.272 20.728 112.859 20.0313 113.607 19.518C114.369 19.0047 115.227 18.748 116.181 18.748C117.031 18.748 117.713 19.0047 118.227 19.518C118.74 20.0167 118.997 20.6987 118.997 21.564C118.997 22.576 118.63 23.4487 117.897 24.182C117.178 24.9007 115.953 25.4727 114.223 25.898C114.589 26.5727 115.286 26.91 116.313 26.91C116.973 26.91 117.721 26.6827 118.557 26.228C119.407 25.7587 120.141 25.15 120.757 24.402C120.933 24.1967 121.131 24.094 121.351 24.094ZM115.807 20.904C115.264 20.904 114.802 21.2193 114.421 21.85C114.054 22.4807 113.871 23.2433 113.871 24.138V24.182C114.736 23.9767 115.418 23.6687 115.917 23.258C116.415 22.8473 116.665 22.3707 116.665 21.828C116.665 21.5493 116.584 21.3293 116.423 21.168C116.276 20.992 116.071 20.904 115.807 20.904ZM125.037 29.594C124.275 29.594 123.688 29.418 123.277 29.066C122.881 28.714 122.683 28.318 122.683 27.878C122.683 27.4967 122.823 27.1667 123.101 26.888C123.38 26.6093 123.791 26.47 124.333 26.47C124.524 26.47 124.744 26.492 124.993 26.536C125.257 26.5653 125.455 26.5873 125.587 26.602C125.573 26.2207 125.485 25.8613 125.323 25.524C125.177 25.1867 124.986 24.864 124.751 24.556C124.517 24.2333 124.297 23.9547 124.091 23.72C123.637 24.5853 123.182 25.304 122.727 25.876C122.287 26.448 121.803 26.9907 121.275 27.504C121.011 27.768 120.733 27.9 120.439 27.9C120.205 27.9 120.014 27.8193 119.867 27.658C119.721 27.482 119.647 27.2693 119.647 27.02C119.647 26.7267 119.75 26.4553 119.955 26.206L120.241 25.854C121.048 24.8567 121.657 24.0353 122.067 23.39C122.317 22.9647 122.61 22.4 122.947 21.696C123.285 20.9773 123.615 20.2367 123.937 19.474C124.216 18.8287 124.795 18.506 125.675 18.506C126.086 18.506 126.372 18.5427 126.533 18.616C126.695 18.6893 126.775 18.8067 126.775 18.968C126.775 19.056 126.746 19.1953 126.687 19.386C126.629 19.5767 126.548 19.7673 126.445 19.958C126.181 20.486 126.049 20.9333 126.049 21.3C126.049 21.52 126.123 21.762 126.269 22.026C126.431 22.29 126.673 22.62 126.995 23.016C127.465 23.632 127.817 24.16 128.051 24.6C128.301 25.0253 128.425 25.4947 128.425 26.008C128.425 26.1547 128.411 26.36 128.381 26.624C129.1 26.3453 129.943 25.6047 130.911 24.402C131.087 24.1967 131.285 24.094 131.505 24.094C131.696 24.094 131.843 24.182 131.945 24.358C132.063 24.534 132.121 24.776 132.121 25.084C132.121 25.6413 131.982 26.096 131.703 26.448C130.97 27.3573 130.266 27.9807 129.591 28.318C128.931 28.6407 128.11 28.8167 127.127 28.846C126.541 29.3447 125.844 29.594 125.037 29.594ZM142.852 24.094C143.043 24.094 143.189 24.182 143.292 24.358C143.409 24.534 143.468 24.776 143.468 25.084C143.468 25.6707 143.329 26.1253 143.05 26.448C142.419 27.2253 141.737 27.8633 141.004 28.362C140.285 28.8607 139.464 29.11 138.54 29.11C137.763 29.11 137.132 28.8313 136.648 28.274C135.812 28.8167 134.939 29.0953 134.03 29.11C133.839 31.9407 133.407 34.302 132.732 36.194C132.057 38.1007 131.067 39.054 129.762 39.054C128.97 39.054 128.383 38.768 128.002 38.196C127.621 37.624 127.43 36.832 127.43 35.82C127.43 34.3827 127.76 32.7033 128.42 30.782C129.08 28.8753 130.099 26.7707 131.478 24.468C131.478 22.3267 131.463 20.838 131.434 20.002C131.419 19.5767 131.588 19.2393 131.94 18.99C132.292 18.7407 132.732 18.616 133.26 18.616C133.568 18.616 133.788 18.682 133.92 18.814C134.067 18.9313 134.147 19.1733 134.162 19.54C134.162 19.9067 134.169 20.178 134.184 20.354C134.653 19.7673 135.115 19.3493 135.57 19.1C136.025 18.836 136.509 18.704 137.022 18.704C137.843 18.704 138.511 19.034 139.024 19.694C139.552 20.354 139.816 21.2193 139.816 22.29C139.816 23.0673 139.691 23.8227 139.442 24.556C139.193 25.2893 138.848 25.9567 138.408 26.558C138.716 26.646 138.973 26.69 139.178 26.69C139.662 26.69 140.124 26.514 140.564 26.162C141.004 25.81 141.569 25.2233 142.258 24.402C142.434 24.1967 142.632 24.094 142.852 24.094ZM134.14 26.998C134.668 26.8807 135.152 26.5947 135.592 26.14C136.047 25.6707 136.406 25.0987 136.67 24.424C136.934 23.7347 137.066 23.016 137.066 22.268C137.066 21.828 136.978 21.498 136.802 21.278C136.626 21.0433 136.391 20.926 136.098 20.926C135.57 20.926 134.932 21.4833 134.184 22.598C134.169 23.2433 134.162 24.1893 134.162 25.436C134.162 26.1107 134.155 26.6313 134.14 26.998ZM129.938 36.898C130.334 36.898 130.664 36.0327 130.928 34.302C131.192 32.586 131.361 30.4447 131.434 27.878C130.803 29.3447 130.305 30.7453 129.938 32.08C129.571 33.4147 129.388 34.5367 129.388 35.446C129.388 35.9153 129.447 36.2747 129.564 36.524C129.667 36.7733 129.791 36.898 129.938 36.898ZM153.686 22.246C153.876 22.246 154.023 22.3413 154.126 22.532C154.228 22.7227 154.28 22.9647 154.28 23.258C154.28 23.962 154.067 24.38 153.642 24.512C152.762 24.82 151.794 24.996 150.738 25.04C150.459 26.272 149.909 27.262 149.088 28.01C148.266 28.7433 147.335 29.11 146.294 29.11C145.414 29.11 144.658 28.8973 144.028 28.472C143.412 28.0467 142.942 27.482 142.62 26.778C142.297 26.074 142.136 25.3113 142.136 24.49C142.136 23.3753 142.348 22.3853 142.774 21.52C143.199 20.64 143.786 19.958 144.534 19.474C145.282 18.9753 146.11 18.726 147.02 18.726C148.134 18.726 149.029 19.1147 149.704 19.892C150.393 20.6547 150.796 21.6007 150.914 22.73C151.603 22.686 152.424 22.5393 153.378 22.29C153.495 22.2607 153.598 22.246 153.686 22.246ZM146.47 26.778C146.939 26.778 147.342 26.5873 147.68 26.206C148.032 25.8247 148.266 25.2747 148.384 24.556C147.929 24.248 147.577 23.8447 147.328 23.346C147.093 22.8473 146.976 22.3193 146.976 21.762C146.976 21.5273 146.998 21.2927 147.042 21.058H146.932C146.345 21.058 145.854 21.344 145.458 21.916C145.076 22.4733 144.886 23.2653 144.886 24.292C144.886 25.0987 145.04 25.7147 145.348 26.14C145.67 26.5653 146.044 26.778 146.47 26.778ZM157.35 20.838C157.321 21.5713 157.306 22.1433 157.306 22.554C157.306 23.61 157.357 24.4387 157.46 25.04C157.577 25.6267 157.761 26.052 158.01 26.316C158.274 26.5653 158.633 26.69 159.088 26.69C159.323 26.69 159.601 26.6167 159.924 26.47C160.247 26.3233 160.54 26.1327 160.804 25.898C160.965 25.7513 161.127 25.678 161.288 25.678C161.464 25.678 161.603 25.7807 161.706 25.986C161.823 26.1767 161.882 26.4113 161.882 26.69C161.882 26.9687 161.823 27.24 161.706 27.504C161.603 27.768 161.442 27.988 161.222 28.164C160.459 28.7947 159.594 29.11 158.626 29.11C157.233 29.11 156.213 28.5307 155.568 27.372C154.923 26.1987 154.6 24.6733 154.6 22.796C154.6 22.1507 154.622 21.498 154.666 20.838H153.808C153.368 20.838 153.067 20.7573 152.906 20.596C152.759 20.4347 152.686 20.178 152.686 19.826C152.686 19.0047 153.016 18.594 153.676 18.594H154.93C155.179 16.9807 155.561 15.5067 156.074 14.172C156.587 12.8373 157.203 11.774 157.922 10.982C158.655 10.19 159.44 9.794 160.276 9.794C160.892 9.794 161.376 10.0653 161.728 10.608C162.08 11.1507 162.256 11.8327 162.256 12.654C162.256 14.9273 161.303 16.9073 159.396 18.594H161.86C162.095 18.594 162.263 18.6453 162.366 18.748C162.469 18.8507 162.52 19.0413 162.52 19.32C162.52 20.332 161.691 20.838 160.034 20.838H157.35ZM159.682 11.906C159.462 11.906 159.213 12.1847 158.934 12.742C158.67 13.2847 158.413 14.0473 158.164 15.03C157.929 15.998 157.731 17.076 157.57 18.264C158.435 17.516 159.081 16.68 159.506 15.756C159.946 14.8173 160.166 13.9667 160.166 13.204C160.166 12.3387 160.005 11.906 159.682 11.906Z" fill="url(#paint0_linear_30_414)"/>
<defs>
<linearGradient id="paint0_linear_30_414" x1="87.8538" y1="22.3676" x2="162" y2="22.3676" gradientUnits="userSpaceOnUse">
<stop offset="0.00264911" stop-color="#FF16B0"/>
<stop offset="0.58125" stop-color="#00B3FF"/>
<stop offset="1" stop-color="#00FFE0"/>
</linearGradient>
</defs>
</svg>
