<svg width="193" height="40" viewBox="0 0 193 40" fill="none" xmlns="http://www.w3.org/2000/svg">
<path d="M2.67969 28C2.13281 28 1.85938 27.7266 1.85938 27.1797V11.0332C1.85938 10.623 1.95508 10.2493 2.14648 9.91211L3.19922 8.06641C3.39974 7.72005 3.63672 7.54688 3.91016 7.54688H4.86719C5.41406 7.54688 5.6875 7.82031 5.6875 8.36719V27.1797C5.6875 27.7266 5.41406 28 4.86719 28H2.67969ZM8.64062 20.8223C8.64062 18.498 9.23763 16.6751 10.4316 15.3535C11.6348 14.0319 13.4212 13.3711 15.791 13.3711C18.1608 13.3711 19.9427 14.0319 21.1367 15.3535C22.3398 16.6751 22.9414 18.498 22.9414 20.8223C22.9414 23.1465 22.3398 24.9694 21.1367 26.291C19.9427 27.6126 18.1608 28.2734 15.791 28.2734C13.4212 28.2734 11.6348 27.6126 10.4316 26.291C9.23763 24.9694 8.64062 23.1465 8.64062 20.8223ZM12.6875 20.8223C12.6875 22.554 12.9518 23.7845 13.4805 24.5137C14.0182 25.2337 14.7884 25.5938 15.791 25.5938C16.7936 25.5938 17.5592 25.2337 18.0879 24.5137C18.6257 23.7845 18.8945 22.554 18.8945 20.8223C18.8945 19.0905 18.6257 17.8646 18.0879 17.1445C17.5592 16.4154 16.7936 16.0508 15.791 16.0508C14.7884 16.0508 14.0182 16.4154 13.4805 17.1445C12.9518 17.8646 12.6875 19.0905 12.6875 20.8223ZM25.0059 14.7109C24.7598 14 24.9102 13.6445 25.457 13.6445H27.9043C28.3236 13.6445 28.597 13.877 28.7246 14.3418L30.7891 21.9844C30.8893 22.3398 30.9759 22.8001 31.0488 23.3652C31.1309 23.9212 31.1719 24.2767 31.1719 24.4316H31.2539C31.3633 23.9486 31.4408 23.5658 31.4863 23.2832C31.541 22.9915 31.6823 22.431 31.9102 21.6016L33.8652 14.3418C33.9928 13.877 34.2663 13.6445 34.6855 13.6445H37.1328C37.6706 13.6445 37.821 14 37.584 14.7109L32.9766 28.5742C32.4388 30.1966 31.778 31.4635 30.9941 32.375C30.2103 33.2865 29.1211 33.7422 27.7266 33.7422C26.9609 33.7422 26.2773 33.6784 25.6758 33.5508C25.3294 33.4779 25.1973 33.2409 25.2793 32.8398L25.5801 31.3359C25.6621 30.944 25.8945 30.8073 26.2773 30.9258C26.5599 31.0169 26.8242 31.0625 27.0703 31.0625C27.8086 31.0625 28.3691 30.7116 28.752 30.0098C29.1439 29.3079 29.4036 28.7064 29.5312 28.2051L29.5723 28L25.0059 14.7109ZM38.6641 20.8223C38.6641 18.498 39.2611 16.6751 40.4551 15.3535C41.6582 14.0319 43.4447 13.3711 45.8145 13.3711C48.1842 13.3711 49.9661 14.0319 51.1602 15.3535C52.3633 16.6751 52.9648 18.498 52.9648 20.8223C52.9648 23.1465 52.3633 24.9694 51.1602 26.291C49.9661 27.6126 48.1842 28.2734 45.8145 28.2734C43.4447 28.2734 41.6582 27.6126 40.4551 26.291C39.2611 24.9694 38.6641 23.1465 38.6641 20.8223ZM42.7109 20.8223C42.7109 22.554 42.9753 23.7845 43.5039 24.5137C44.0417 25.2337 44.8118 25.5938 45.8145 25.5938C46.8171 25.5938 47.5827 25.2337 48.1113 24.5137C48.6491 23.7845 48.918 22.554 48.918 20.8223C48.918 19.0905 48.6491 17.8646 48.1113 17.1445C47.5827 16.4154 46.8171 16.0508 45.8145 16.0508C44.8118 16.0508 44.0417 16.4154 43.5039 17.1445C42.9753 17.8646 42.7109 19.0905 42.7109 20.8223ZM56.7383 28C56.1914 28 55.918 27.7266 55.918 27.1797V11.0332C55.918 10.623 56.0137 10.2493 56.2051 9.91211L57.2578 8.06641C57.4583 7.72005 57.6953 7.54688 57.9688 7.54688H58.9258C59.4727 7.54688 59.7461 7.82031 59.7461 8.36719V27.1797C59.7461 27.7266 59.4727 28 58.9258 28H56.7383ZM62.6992 24.1719C62.6992 22.349 63.5697 21.0273 65.3105 20.207C67.0514 19.3867 69.0384 18.9492 71.2715 18.8945V18.3477C71.2715 17.5091 71.0618 16.9167 70.6426 16.5703C70.2233 16.224 69.64 16.0508 68.8926 16.0508C68.3639 16.0508 67.8945 16.1283 67.4844 16.2832C67.0833 16.429 66.7324 16.6022 66.4316 16.8027C66.14 16.9941 65.8757 17.1901 65.6387 17.3906C65.2194 17.7552 64.873 17.7734 64.5996 17.4453L63.4648 16.0508C63.1823 15.7044 63.2507 15.349 63.6699 14.9844C63.9889 14.7018 64.3581 14.4557 64.7773 14.2461C65.2057 14.0365 65.7708 13.8405 66.4727 13.6582C67.1745 13.4668 68.0859 13.3711 69.207 13.3711C71.1029 13.3711 72.5566 13.8086 73.5684 14.6836C74.5892 15.5586 75.0996 16.8483 75.0996 18.5527V27.1797C75.0996 27.7266 74.8262 28 74.2793 28H72.0371C71.5449 28 71.2988 27.7266 71.2988 27.1797V26.7695H71.2715C70.7337 27.2891 70.0866 27.6719 69.3301 27.918C68.5827 28.1549 67.8945 28.2734 67.2656 28.2734C65.7708 28.2734 64.6361 27.9089 63.8613 27.1797C63.0866 26.4414 62.6992 25.4388 62.6992 24.1719ZM66.7461 24.0898C66.7461 24.4089 66.8099 24.6868 66.9375 24.9238C67.0651 25.1517 67.2656 25.3203 67.5391 25.4297C67.8125 25.5391 68.1178 25.5938 68.4551 25.5938C68.9199 25.5938 69.3711 25.5299 69.8086 25.4023C70.2461 25.2747 70.7337 24.974 71.2715 24.5V21.5332C69.7402 21.7064 68.7148 21.9297 68.1953 22.2031C67.6758 22.4766 67.3021 22.7591 67.0742 23.0508C66.8555 23.3424 66.7461 23.6888 66.7461 24.0898ZM87.6367 20.8223C87.6367 18.498 88.2337 16.6751 89.4277 15.3535C90.6309 14.0319 92.4173 13.3711 94.7871 13.3711C97.1569 13.3711 98.9388 14.0319 100.133 15.3535C101.336 16.6751 101.938 18.498 101.938 20.8223C101.938 23.1465 101.336 24.9694 100.133 26.291C98.9388 27.6126 97.1569 28.2734 94.7871 28.2734C92.4173 28.2734 90.6309 27.6126 89.4277 26.291C88.2337 24.9694 87.6367 23.1465 87.6367 20.8223ZM91.6836 20.8223C91.6836 22.554 91.9479 23.7845 92.4766 24.5137C93.0143 25.2337 93.7845 25.5938 94.7871 25.5938C95.7897 25.5938 96.5553 25.2337 97.084 24.5137C97.6217 23.7845 97.8906 22.554 97.8906 20.8223C97.8906 19.0905 97.6217 17.8646 97.084 17.1445C96.5553 16.4154 95.7897 16.0508 94.7871 16.0508C93.7845 16.0508 93.0143 16.4154 92.4766 17.1445C91.9479 17.8646 91.6836 19.0905 91.6836 20.8223ZM105.711 28C105.164 28 104.891 27.7266 104.891 27.1797V14.4648C104.891 13.918 105.164 13.6445 105.711 13.6445H107.871C108.418 13.6445 108.691 13.918 108.691 14.4648V15.2578H108.746C109.165 14.5378 109.699 14.0456 110.346 13.7812C110.993 13.5078 111.772 13.3711 112.684 13.3711C114.105 13.3711 115.281 13.8177 116.211 14.7109C117.141 15.6042 117.605 17.2357 117.605 19.6055V27.1797C117.605 27.7266 117.332 28 116.785 28H114.598C114.051 28 113.777 27.7266 113.777 27.1797V20.5898C113.777 18.6029 113.641 17.3496 113.367 16.8301C113.094 16.3105 112.506 16.0508 111.604 16.0508C110.646 16.0508 109.926 16.4245 109.443 17.1719C108.96 17.9102 108.719 19.4505 108.719 21.793V27.1797C108.719 27.7266 108.445 28 107.898 28H105.711ZM120.531 20.8223C120.531 18.5163 121.105 16.6979 122.254 15.3672C123.411 14.0365 125.043 13.3711 127.148 13.3711C129.591 13.3711 131.405 14 132.59 15.2578C133.775 16.5156 134.367 18.5391 134.367 21.3281C134.367 21.875 134.112 22.1484 133.602 22.1484H124.578C124.724 23.6615 125.098 24.6139 125.699 25.0059C126.301 25.3978 126.998 25.5938 127.791 25.5938C128.548 25.5938 129.126 25.4935 129.527 25.293C129.928 25.0924 130.266 24.819 130.539 24.4727C130.849 24.0716 131.232 24.0078 131.688 24.2812L133.055 25.1152C133.592 25.4434 133.67 25.8353 133.287 26.291C132.731 26.9564 132.079 27.4531 131.332 27.7812C130.585 28.1094 129.404 28.2734 127.791 28.2734C125.175 28.2734 123.311 27.6081 122.199 26.2773C121.087 24.9466 120.531 23.1283 120.531 20.8223ZM124.592 19.4141H130.539C130.539 18.4297 130.293 17.6276 129.801 17.0078C129.309 16.3789 128.525 16.0645 127.449 16.0645C126.592 16.0645 125.913 16.3652 125.412 16.9668C124.911 17.5592 124.637 18.375 124.592 19.4141ZM137.061 27.043C136.614 26.724 136.491 26.3822 136.691 26.0176L137.389 24.7461C137.635 24.2904 138.018 24.2357 138.537 24.582C139.057 24.9284 139.667 25.1836 140.369 25.3477C141.08 25.5117 141.727 25.5938 142.311 25.5938C142.721 25.5938 143.104 25.5527 143.459 25.4707C143.814 25.3887 144.115 25.2292 144.361 24.9922C144.607 24.7552 144.73 24.4089 144.73 23.9531C144.73 23.6797 144.658 23.4473 144.512 23.2559C144.366 23.0645 144.179 22.9186 143.951 22.8184C143.723 22.7181 143.482 22.6361 143.227 22.5723C142.889 22.4902 142.402 22.3535 141.764 22.1621C141.135 21.9707 140.529 21.7474 139.945 21.4922C139.462 21.2826 138.988 20.9909 138.523 20.6172C138.068 20.2344 137.73 19.8105 137.512 19.3457C137.302 18.8809 137.197 18.3066 137.197 17.623C137.197 16.7025 137.462 15.8958 137.99 15.2031C138.528 14.5104 139.221 14.0319 140.068 13.7676C140.916 13.5033 141.973 13.3711 143.24 13.3711C144.097 13.3711 144.931 13.4941 145.742 13.7402C146.553 13.9863 147.132 14.2188 147.479 14.4375C148.025 14.7839 148.162 15.153 147.889 15.5449L147.055 16.7617C146.799 17.1263 146.389 17.1536 145.824 16.8438C145.396 16.6068 144.972 16.4154 144.553 16.2695C144.143 16.1237 143.682 16.0508 143.172 16.0508C142.826 16.0508 142.493 16.0872 142.174 16.1602C141.855 16.2331 141.581 16.3698 141.354 16.5703C141.135 16.7708 141.025 17.0352 141.025 17.3633C141.025 17.7096 141.126 17.9831 141.326 18.1836C141.536 18.375 141.773 18.5163 142.037 18.6074C142.311 18.6986 142.57 18.7852 142.816 18.8672C143.327 19.0312 143.842 19.1908 144.361 19.3457C144.881 19.4915 145.41 19.6693 145.947 19.8789C146.412 20.0612 146.863 20.321 147.301 20.6582C147.738 20.9954 148.057 21.4238 148.258 21.9434C148.458 22.4629 148.559 23.0553 148.559 23.7207C148.559 24.6048 148.294 25.4251 147.766 26.1816C147.237 26.9382 146.54 27.4759 145.674 27.7949C144.808 28.1139 143.801 28.2734 142.652 28.2734C141.367 28.2734 140.273 28.1823 139.371 28C138.469 27.8177 137.699 27.4987 137.061 27.043ZM151.922 33.4688C151.375 33.4688 151.102 33.1953 151.102 32.6484V14.4648C151.102 13.918 151.375 13.6445 151.922 13.6445H154.082C154.538 13.6445 154.784 13.918 154.82 14.4648L154.875 15.2578H154.93C155.404 14.474 155.932 13.9635 156.516 13.7266C157.099 13.4896 157.801 13.3711 158.621 13.3711C160.763 13.3711 162.267 14.1139 163.133 15.5996C164.008 17.0762 164.445 18.8171 164.445 20.8223C164.445 22.8275 164.008 24.5729 163.133 26.0586C162.267 27.5352 160.763 28.2734 158.621 28.2734C157.801 28.2734 157.099 28.1549 156.516 27.918C155.932 27.681 155.404 27.1706 154.93 26.3867H154.875C154.911 26.7513 154.93 27.1159 154.93 27.4805V32.6484C154.93 33.1953 154.656 33.4688 154.109 33.4688H151.922ZM154.93 21.4375C154.93 22.668 155.171 23.6706 155.654 24.4453C156.146 25.2109 156.734 25.5938 157.418 25.5938C158.648 25.5938 159.451 25.1654 159.824 24.3086C160.207 23.4427 160.398 22.2806 160.398 20.8223C160.398 19.3639 160.207 18.2064 159.824 17.3496C159.451 16.4837 158.648 16.0508 157.418 16.0508C156.734 16.0508 156.146 16.4382 155.654 17.2129C155.171 17.9785 154.93 18.9766 154.93 20.207V21.4375ZM166.633 20.8223C166.633 18.498 167.23 16.6751 168.424 15.3535C169.627 14.0319 171.413 13.3711 173.783 13.3711C176.153 13.3711 177.935 14.0319 179.129 15.3535C180.332 16.6751 180.934 18.498 180.934 20.8223C180.934 23.1465 180.332 24.9694 179.129 26.291C177.935 27.6126 176.153 28.2734 173.783 28.2734C171.413 28.2734 169.627 27.6126 168.424 26.291C167.23 24.9694 166.633 23.1465 166.633 20.8223ZM170.68 20.8223C170.68 22.554 170.944 23.7845 171.473 24.5137C172.01 25.2337 172.781 25.5938 173.783 25.5938C174.786 25.5938 175.551 25.2337 176.08 24.5137C176.618 23.7845 176.887 22.554 176.887 20.8223C176.887 19.0905 176.618 17.8646 176.08 17.1445C175.551 16.4154 174.786 16.0508 173.783 16.0508C172.781 16.0508 172.01 16.4154 171.473 17.1445C170.944 17.8646 170.68 19.0905 170.68 20.8223ZM183.408 16.3789C182.87 16.3789 182.602 16.151 182.602 15.6953V14.3281C182.602 13.8724 182.87 13.6445 183.408 13.6445H184.338V13.166C184.338 12.7559 184.434 12.3822 184.625 12.0449L185.678 10.1992C185.878 9.85286 186.115 9.67969 186.389 9.67969H187.346C187.893 9.67969 188.166 9.95312 188.166 10.5V13.6445H190.381C190.919 13.6445 191.188 13.8724 191.188 14.3281V15.6953C191.188 16.151 190.919 16.3789 190.381 16.3789H188.166V23.1602C188.166 24.0898 188.23 24.7598 188.357 25.1699C188.494 25.571 188.84 25.7715 189.396 25.7715C189.679 25.7715 189.998 25.7259 190.354 25.6348C190.709 25.5345 190.987 25.4388 191.188 25.3477C191.507 25.2018 191.716 25.3066 191.816 25.6621L192.227 27.2207C192.309 27.5306 192.19 27.7585 191.871 27.9043C191.57 28.041 191.156 28.1641 190.627 28.2734C190.107 28.3919 189.583 28.4512 189.055 28.4512C187.751 28.4512 186.639 28.1823 185.719 27.6445C184.798 27.1068 184.338 25.9993 184.338 24.3223V16.3789H183.408Z" fill="#071354"/>
</svg>
